<?xml version="1.0" encoding="UTF-8" standalone="no"?>
<svg
   xmlns:dc="http://purl.org/dc/elements/1.1/"
   xmlns:cc="http://creativecommons.org/ns#"
   xmlns:rdf="http://www.w3.org/1999/02/22-rdf-syntax-ns#"
   xmlns:svg="http://www.w3.org/2000/svg"
   xmlns="http://www.w3.org/2000/svg"
   xmlns:sodipodi="http://sodipodi.sourceforge.net/DTD/sodipodi-0.dtd"
   xmlns:inkscape="http://www.inkscape.org/namespaces/inkscape"
   width="112"
   height="40"
   viewBox="0 0 112 40"
   version="1.1"
   id="svg327"
   sodipodi:docname="logo.svg"
   inkscape:version="0.92.5 (2060ec1f9f, 2020-04-08)">
  <metadata
     id="metadata331">
    <rdf:RDF>
      <cc:Work
         rdf:about="">
        <dc:format>image/svg+xml</dc:format>
        <dc:type
           rdf:resource="http://purl.org/dc/dcmitype/StillImage" />
      </cc:Work>
    </rdf:RDF>
  </metadata>
  <sodipodi:namedview
     pagecolor="#ffffff"
     bordercolor="#666666"
     borderopacity="1"
     objecttolerance="10"
     gridtolerance="10"
     guidetolerance="10"
     inkscape:pageopacity="0"
     inkscape:pageshadow="2"
     inkscape:window-width="1864"
     inkscape:window-height="1016"
     id="namedview329"
     showgrid="false"
     inkscape:zoom="8"
     inkscape:cx="79.185957"
     inkscape:cy="20.507302"
     inkscape:window-x="56"
     inkscape:window-y="27"
     inkscape:window-maximized="1"
     inkscape:current-layer="svg327" />
  <defs
     id="defs309">
    <style
       id="style307">.a{fill:#f9d7d7;}.b{fill:#e83030;}</style>
  </defs>
  <path
     class="a"
     d="M108,0H4A4,4,0,0,0,0,4V36a4,4,0,0,0,4,4H108a4,4,0,0,0,4-4V4A4,4,0,0,0,108,0Zm2,34a4,4,0,0,1-4,4H42V2h64a4,4,0,0,1,4,4Z"
     id="path311" />
  <path
     style="fill:#ffffff;stroke-width:0.04332383"
     d=""
     id="path408"
     inkscape:connector-curvature="0" />
  <text
     xml:space="preserve"
     style="font-style:normal;font-weight:normal;font-size:40px;line-height:1.25;font-family:Dyuthi;letter-spacing:0px;word-spacing:0px;fill:#000000;fill-opacity:1;stroke:none;-inkscape-font-specification:Dyuthi;font-stretch:normal;font-variant:normal;"
     x="54.358833"
     y="17.01903"
     id="text4942"><tspan
       sodipodi:role="line"
       id="tspan4940"
       x="54.358833"
       y="52.409653" /></text>
  <text
     xml:space="preserve"
     style="font-style:normal;font-weight:normal;font-size:40px;line-height:1.25;font-family:sans-serif;letter-spacing:0px;word-spacing:0px;fill:#000000;fill-opacity:1;stroke:none"
     x="50.027805"
     y="20.024233"
     id="text4946"><tspan
       sodipodi:role="line"
       id="tspan4944"
       x="50.027805"
       y="55.414856" /></text>
  <text
     xml:space="preserve"
     style="font-style:normal;font-variant:normal;font-weight:normal;font-stretch:normal;font-size:40px;line-height:1.25;font-family:Uroob;-inkscape-font-specification:Uroob;letter-spacing:0px;word-spacing:0px;fill:#000000;fill-opacity:1;stroke:none;"
     x="51.26524"
     y="19.317127"
     id="text4950"><tspan
       sodipodi:role="line"
       id="tspan4948"
       x="51.26524"
       y="56.616814" /></text>
  <text
     xml:space="preserve"
     style="font-style:normal;font-variant:normal;font-weight:normal;font-stretch:normal;font-size:22.2360878px;line-height:1.25;font-family:'Ubuntu Condensed';-inkscape-font-specification:'Ubuntu Condensed, ';letter-spacing:0px;word-spacing:0px;fill:#f9d7d7;fill-opacity:1;stroke:none;stroke-width:0.55590224"
     x="52.830845"
     y="28.772228"
     id="text4954"><tspan
       sodipodi:role="line"
       id="tspan4952"
       x="52.830845"
       y="28.772228"
       style="fill:#f9d7d7;fill-opacity:1;stroke-width:0.55590224">engin</tspan></text>
  <path
     id="path367"
     style="fill:#ff0000;stroke-width:0.1633815"
     d="m 19.404625,4.4374978 c -0.04773,-0.00274 -0.125378,0.066841 -0.248744,0.1784878 -0.606785,0.5491342 -0.834616,1.1961758 -0.740538,2.1076834 0.04816,0.4666878 0.165047,0.9862301 0.260138,1.1544792 0.353084,0.6247136 1.163038,3.2099718 1.162073,3.7102818 -5.54e-4,0.284884 -0.110709,0.728097 -0.244946,0.985484 -0.134237,0.257387 -0.244957,0.49511 -0.244947,0.529768 -10e-7,0.170151 0.813923,0.02055 1.444997,-0.265832 1.003279,-0.455276 1.619426,-1.172807 1.748807,-2.035529 C 22.742294,9.4631357 22.112159,8.3742042 20.504038,7.280022 19.560415,6.6379682 19.448267,6.4085958 19.471084,5.1875291 c 0.01008,-0.5412328 0.01307,-0.7454434 -0.06646,-0.7500313 z m -5.774292,7.9636242 c -0.05092,-0.0098 -0.117307,10e-4 -0.205072,0.019 -0.202184,0.04146 -0.658706,0.122775 -1.013966,0.180386 -1.463834,0.23738 -2.681878,1.296153 -3.0153169,2.620364 -0.097796,0.388386 -0.1784878,1.987228 -0.1784878,3.554579 v 2.85012 l -0.4443225,0.292415 c -0.2445364,0.160225 -0.7953219,0.323303 -1.2247342,0.364572 l -0.7804132,0.07596 v 1.105109 c 0,1.18921 0.081721,1.303318 0.9513063,1.304486 0.2397633,3.34e-4 0.669865,0.14318 0.9551031,0.317101 l 0.5183765,0.315204 0.053166,3.237477 c 0.049057,2.98312 0.082225,3.289806 0.4196384,3.921048 0.4387663,0.820844 1.2506223,1.474318 2.2026233,1.771595 0.384439,0.120044 0.975096,0.223729 1.312081,0.229757 l 0.611418,0.0095 v -0.976 c 0,-1.070582 0.113905,-0.9605 -1.279801,-1.245621 -0.209925,-0.04295 -0.557803,-0.255895 -0.774715,-0.472804 -0.389327,-0.389378 -0.394955,-0.434258 -0.394955,-3.512813 0,-2.756335 -0.03692,-3.189475 -0.315201,-3.734966 -0.173152,-0.339365 -0.424854,-0.707962 -0.56015,-0.820247 -0.214722,-0.178207 -0.180451,-0.298459 0.273429,-0.941812 l 0.520274,-0.736739 0.08164,-3.351406 0.08165,-3.351408 0.434828,-0.374064 c 0.238819,-0.205167 0.770295,-0.422308 1.182961,-0.484199 l 0.750031,-0.113929 v -1.05389 c 0,-0.75568 -0.0086,-0.969513 -0.161399,-0.998775 z m 12.334692,0.03798 v 0.964598 0.964597 l 0.873455,0.197478 c 1.546811,0.348372 1.570466,0.405081 1.619688,4.038775 0.0234,1.72752 0.08005,3.304674 0.125323,3.505209 0.0453,0.200537 0.299191,0.613425 0.565846,0.917128 l 0.486096,0.552554 -0.341787,0.307608 c -0.723586,0.654831 -0.797501,1.037331 -0.797501,4.145111 0,3.900026 -0.16586,4.280391 -1.959576,4.460312 l -0.571544,0.05695 -0.03228,1.032956 -0.03039,1.031055 0.941813,-0.08545 c 1.165546,-0.105685 2.066945,-0.552759 2.838725,-1.407021 0.593582,-0.657019 0.815946,-1.348532 0.926621,-2.8805 0.0071,-0.0973 0.689159,-0.165151 1.686147,-0.167097 0.966939,-0.0018 1.93939,-0.09416 2.301361,-0.220262 0.814359,-0.28372 1.670056,-1.044505 2.119077,-1.883622 0.337268,-0.630286 0.358875,-0.878324 0.358875,-4.264736 0,-3.371554 -0.0224,-3.634635 -0.353179,-4.247646 -0.846595,-1.568912 -1.838612,-2.076336 -4.243849,-2.172243 l -1.819062,-0.07215 -0.110132,-1.002573 c -0.250816,-2.285243 -1.572217,-3.55375 -3.87168,-3.719775 z m -7.314228,3.389383 c -1.94912,0.0369 -3.753204,0.194126 -4.650195,0.487994 -1.32336,0.433549 -0.467007,0.976908 1.976665,1.255116 1.820983,0.207318 7.612913,0.07375 8.890245,-0.205071 1.150772,-0.251193 1.519264,-0.491588 1.21714,-0.793704 -0.532756,-0.532762 -4.185326,-0.805847 -7.433855,-0.744335 z m 13.415117,3.546983 c 2.894169,0 2.965946,0.107997 2.965946,4.420438 v 3.129244 l -0.554453,0.554454 -0.556352,0.556354 h -1.689944 l -1.691844,-0.0019 0.01328,-1.257015 c 0.01234,-1.167475 0.04531,-1.281934 0.451917,-1.585509 0.241037,-0.179964 0.785852,-0.366919 1.211444,-0.415841 l 0.774715,-0.08925 0.04747,-1.163973 0.04746,-1.162074 -0.814591,-0.07974 c -0.447895,-0.04304 -1.002566,-0.200738 -1.23233,-0.35128 -0.362621,-0.237602 -0.417739,-0.389307 -0.417739,-1.154479 0,-0.484809 -0.04419,-0.99905 -0.09874,-1.141188 -0.08638,-0.225098 0.112105,-0.258238 1.543736,-0.258238 z"
     inkscape:connector-curvature="0" />
</svg>
